<svg width="111" height="111" viewBox="0 0 111 111" fill="none" xmlns="http://www.w3.org/2000/svg">
<g clip-path="url(#clip0_32_216)">
<path d="M93.9684 20.1673C86.7708 16.8641 79.1759 14.5066 71.373 13.1535C71.3023 13.1416 71.2297 13.1519 71.1651 13.1829C71.1005 13.214 71.0471 13.2643 71.0122 13.3269C70.0341 15.0613 68.9518 17.3299 68.1956 19.1059C59.7847 17.8294 51.2292 17.8294 42.8183 19.1059C41.9747 17.1274 41.0205 15.1981 39.96 13.3269C39.9244 13.265 39.8709 13.2153 39.8065 13.1843C39.7421 13.1533 39.6699 13.1426 39.5993 13.1535C31.7946 14.4994 24.198 16.8581 17.0038 20.1673C16.9423 20.1908 16.8908 20.2349 16.8581 20.2922C2.46976 41.7915 -1.47768 62.7636 0.457887 83.472C0.464824 83.5691 0.527262 83.6662 0.603574 83.7287C8.98216 89.9351 18.3538 94.6737 28.3189 97.7424C28.3892 97.7646 28.4648 97.7638 28.5347 97.7401C28.6046 97.7164 28.6651 97.671 28.7074 97.6106C30.8441 94.6969 32.745 91.6236 34.3823 88.3907C34.4164 88.3241 34.4281 88.2483 34.4156 88.1745C34.4031 88.1007 34.367 88.033 34.3129 87.9814C34.277 87.9475 34.2345 87.9215 34.188 87.9051C31.1991 86.7563 28.3043 85.3762 25.53 83.7772C25.4525 83.7333 25.3949 83.6613 25.3691 83.5761C25.3432 83.4908 25.3512 83.3989 25.3913 83.3194C25.4149 83.2677 25.4506 83.2225 25.4953 83.1876C26.0781 82.7505 26.6608 82.2926 27.2158 81.8347C27.2648 81.7953 27.3237 81.77 27.386 81.7614C27.4483 81.7529 27.5118 81.7614 27.5696 81.7862C45.7389 90.0834 65.4068 90.0834 83.3541 81.7862C83.414 81.7602 83.4799 81.751 83.5446 81.7596C83.6094 81.7682 83.6706 81.7941 83.7217 81.8347C84.2767 82.2926 84.8595 82.7505 85.4422 83.1876C85.4895 83.2221 85.5274 83.2677 85.5527 83.3205C85.5779 83.3733 85.5897 83.4314 85.5869 83.4899C85.5842 83.5483 85.567 83.6051 85.5369 83.6553C85.5068 83.7054 85.4648 83.7473 85.4145 83.7772C82.6466 85.3909 79.7481 86.7693 76.7496 87.8981C76.7017 87.9154 76.6583 87.943 76.6223 87.979C76.5864 88.015 76.5587 88.0584 76.5414 88.1062C76.5254 88.1526 76.519 88.2017 76.5225 88.2506C76.5261 88.2995 76.5396 88.3472 76.5622 88.3907C78.2272 91.6166 80.1351 94.6969 82.2302 97.6106C82.2725 97.671 82.333 97.7164 82.4029 97.7401C82.4727 97.7638 82.5483 97.7646 82.6187 97.7424C92.6004 94.6832 101.987 89.944 110.376 83.7287C110.418 83.6996 110.453 83.6614 110.478 83.617C110.503 83.5725 110.518 83.523 110.521 83.472C112.838 59.5307 106.643 38.7321 94.1072 20.2991C94.0945 20.2687 94.0757 20.2412 94.0518 20.2185C94.0279 20.1958 93.9995 20.1784 93.9684 20.1673ZM37.0948 70.8596C31.6211 70.8596 27.1187 65.8369 27.1187 59.6764C27.1187 53.5089 31.5379 48.4862 37.0948 48.4862C42.6934 48.4862 47.1542 53.5506 47.0709 59.6764C47.0709 65.8369 42.6518 70.8596 37.0948 70.8596ZM73.9746 70.8596C68.5078 70.8596 63.9984 65.8369 63.9984 59.6764C63.9984 53.5089 68.4176 48.4862 73.9746 48.4862C79.5731 48.4862 84.0409 53.5506 83.9507 59.6764C83.9507 65.8369 79.5731 70.8596 73.9746 70.8596Z" fill="url(#paint0_linear_32_216)"/>
</g>
<defs>
<linearGradient id="paint0_linear_32_216" x1="55.4994" y1="13.1487" x2="55.4994" y2="97.7585" gradientUnits="userSpaceOnUse">
<stop stop-color="#4449BA"/>
<stop offset="1" stop-color="#878CFF" stop-opacity="0"/>
</linearGradient>
<clipPath id="clip0_32_216">
<rect width="111" height="111" fill="white"/>
</clipPath>
</defs>
</svg>
