<svg width="116" height="116" viewBox="0 0 116 116" fill="none" xmlns="http://www.w3.org/2000/svg">
<g clip-path="url(#clip0_32_218)">
<path d="M0 8.3085C0 3.71925 3.8135 0 8.51875 0H107.481C112.187 0 116 3.71925 116 8.3085V107.691C116 112.281 112.187 116 107.481 116H8.51875C3.8135 116 0 112.281 0 107.691V8.3085ZM35.8368 97.1065V44.7253H18.4295V97.1065H35.8368ZM27.1367 37.5695C33.205 37.5695 36.9823 33.553 36.9823 28.5215C36.8735 23.3813 33.2122 19.4735 27.2528 19.4735C21.2933 19.4735 17.4 23.3885 17.4 28.5215C17.4 33.553 21.1772 37.5695 27.0208 37.5695H27.1367ZM62.7197 97.1065V67.8528C62.7197 66.2868 62.8358 64.7207 63.2998 63.6042C64.554 60.4795 67.4178 57.2388 72.2318 57.2388C78.532 57.2388 81.0478 62.0383 81.0478 69.0853V97.1065H98.455V67.0625C98.455 50.9675 89.871 43.4855 78.416 43.4855C69.1795 43.4855 65.0397 48.5605 62.7197 52.1348V52.316H62.6038C62.6423 52.2555 62.6809 52.1951 62.7197 52.1348V44.7253H45.3197C45.5373 49.6408 45.3197 97.1065 45.3197 97.1065H62.7197Z" fill="url(#paint0_linear_32_218)"/>
</g>
<defs>
<linearGradient id="paint0_linear_32_218" x1="58" y1="0" x2="58" y2="116" gradientUnits="userSpaceOnUse">
<stop stop-color="#0368FF"/>
<stop offset="1" stop-color="#1170FF" stop-opacity="0"/>
</linearGradient>
<clipPath id="clip0_32_218">
<rect width="116" height="116" fill="white"/>
</clipPath>
</defs>
</svg>
