<svg width="157" height="157" viewBox="0 0 157 157" fill="none" xmlns="http://www.w3.org/2000/svg">
<path d="M49.3176 147.187C108.565 147.187 140.976 98.0955 140.976 55.5976C140.976 54.2238 140.976 52.8305 140.917 51.4567C147.227 46.8889 152.673 41.2336 157 34.7558C151.106 37.3547 144.86 39.0675 138.464 39.8387C145.201 35.812 150.246 29.4764 152.663 22.0094C146.334 25.759 139.406 28.3912 132.184 29.7907C127.329 24.6198 120.904 21.1942 113.904 20.0445C106.905 18.8949 99.7217 20.0854 93.4674 23.4316C87.2131 26.7778 82.2367 32.093 79.309 38.5539C76.3814 45.0147 75.6659 52.2607 77.2734 59.1693C64.4656 58.5271 51.9358 55.1999 40.4966 49.4034C29.0575 43.6069 18.9645 35.4706 10.8723 25.5223C6.76415 32.6175 5.51044 41.0103 7.36571 48.9964C9.22099 56.9824 14.0462 63.963 20.8614 68.5207C15.7544 68.3471 10.7596 66.9758 6.28 64.5172V64.9587C6.28881 72.3915 8.8637 79.5933 13.5694 85.3467C18.2752 91.1002 24.8232 95.0524 32.1065 96.5354C29.342 97.2969 26.4862 97.6766 23.6187 97.6638C21.5972 97.6699 19.5797 97.4826 17.5938 97.1045C19.6523 103.503 23.6606 109.097 29.0572 113.104C34.4538 117.11 40.9685 119.328 47.6888 119.448C36.2724 128.414 22.1704 133.277 7.65375 133.254C5.09583 133.265 2.5397 133.117 0 132.812C14.7336 142.205 31.8445 147.193 49.3176 147.187Z" fill="url(#paint0_linear_32_220)"/>
<defs>
<linearGradient id="paint0_linear_32_220" x1="78.5" y1="19.6182" x2="78.5" y2="147.187" gradientUnits="userSpaceOnUse">
<stop stop-color="#419FF7"/>
<stop offset="1" stop-color="#7AADDC" stop-opacity="0"/>
</linearGradient>
</defs>
</svg>
