<svg width="107" height="107" viewBox="0 0 107 107" fill="none" xmlns="http://www.w3.org/2000/svg">
<g clip-path="url(#clip0_32_212)">
<path d="M90.9567 15.5555C86.0512 10.6045 80.2094 6.67943 73.7718 4.00885C67.3342 1.33827 60.4294 -0.0243711 53.4599 0.000329898C24.2556 0.000329898 0.45475 23.7945 0.428 53.0055C0.428 62.3613 2.87562 71.463 7.49669 79.5214L0 107L28.1142 99.6307C35.8918 103.863 44.6052 106.082 53.4599 106.084H53.4866C82.6976 106.084 106.492 82.29 106.518 53.0523C106.525 46.0842 105.153 39.1836 102.481 32.7482C99.8091 26.3128 95.8968 20.4696 90.9567 15.5555ZM53.4599 97.1095C45.5619 97.1122 37.8091 94.9868 31.0166 90.957L29.4116 89.994L12.733 94.3676L17.1869 78.097L16.1436 76.4184C11.7286 69.3987 9.39357 61.2714 9.40931 52.9787C9.40931 28.7298 29.1842 8.9482 53.4866 8.9482C59.2763 8.93782 65.0107 10.0735 70.3593 12.2899C75.7079 14.5062 80.565 17.7594 84.6504 21.8618C88.75 25.9482 92 30.8058 94.213 36.1545C96.4259 41.5032 97.558 47.2371 97.5439 53.0255C97.5171 77.3613 77.7422 97.1095 53.4599 97.1095ZM77.6352 64.1134C76.3177 63.4513 69.8108 60.248 68.587 59.7933C67.3699 59.3586 66.4804 59.1312 65.611 60.4553C64.7216 61.7728 62.1804 64.7755 61.418 65.6381C60.6556 66.5276 59.8665 66.6279 58.5424 65.9725C57.2249 65.3038 52.9516 63.9128 47.8959 59.3853C43.9502 55.8744 41.3087 51.5275 40.5196 50.2101C39.7572 48.8859 40.446 48.1771 41.1081 47.515C41.6899 46.9265 42.4255 45.9635 43.0876 45.2011C43.7563 44.4388 43.977 43.877 44.4117 42.9943C44.8464 42.0981 44.6391 41.3358 44.3114 40.6737C43.977 40.0116 41.3354 33.478 40.2186 30.8431C39.1486 28.2416 38.0586 28.6028 37.2427 28.5693C36.4803 28.5225 35.5909 28.5225 34.7014 28.5225C34.0298 28.5392 33.3688 28.6946 32.76 28.9788C32.1512 29.2631 31.6078 29.6701 31.1637 30.1743C29.9466 31.4985 26.5427 34.7018 26.5427 41.2355C26.5427 47.7691 31.2908 54.0487 31.9596 54.9381C32.6149 55.8276 41.2819 69.1959 54.5834 74.9471C57.7265 76.3181 60.2009 77.1273 62.1336 77.7425C65.3101 78.759 68.179 78.6052 70.4662 78.2775C73.0074 77.8896 78.2972 75.0675 79.414 71.9712C80.5108 68.8682 80.5108 66.22 80.1764 65.6649C79.8487 65.1031 78.9593 64.7755 77.6352 64.1134Z" fill="url(#paint0_linear_32_212)"/>
</g>
<defs>
<linearGradient id="paint0_linear_32_212" x1="53.2593" y1="0" x2="53.2593" y2="107" gradientUnits="userSpaceOnUse">
<stop stop-color="#05EE46"/>
<stop offset="1" stop-color="white" stop-opacity="0"/>
</linearGradient>
<clipPath id="clip0_32_212">
<rect width="107" height="107" fill="white"/>
</clipPath>
</defs>
</svg>
